<?xml version="1.0" encoding="UTF-8"?>
<svg id="Layer_1" xmlns="http://www.w3.org/2000/svg" xmlns:xlink="http://www.w3.org/1999/xlink" version="1.1" viewBox="0 0 895 665">
  <!-- Generator: Adobe Illustrator 29.3.1, SVG Export Plug-In . SVG Version: 2.1.0 Build 151)  -->
  <defs>
    <style>
      .st0 {
        fill: #fce7e7;
      }

      .st0, .st1, .st2, .st3, .st4, .st5, .st6, .st7, .st8, .st9, .st10, .st11, .st12, .st13, .st14, .st15, .st16, .st17 {
        stroke: #000;
      }

      .st0, .st2, .st5, .st7, .st8, .st9, .st12, .st16 {
        stroke-miterlimit: 1.2;
        stroke-width: .1px;
      }

      .st1, .st3, .st4, .st18, .st10, .st11, .st13, .st14, .st15, .st17 {
        stroke-miterlimit: 10;
      }

      .st1, .st12, .st19 {
        fill: #e5a000;
      }

      .st2 {
        fill: #fef4ea;
      }

      .st3, .st16 {
        fill: #ec7a08;
      }

      .st4 {
        stroke-width: 1.5px;
      }

      .st4, .st18, .st13 {
        fill: none;
      }

      .st5 {
        fill: #fbefcf;
      }

      .st18 {
        stroke: #d3d3d3;
        stroke-dasharray: 5;
        stroke-opacity: .8;
      }

      .st20 {
        font-family: ArialMT, Arial;
        font-size: 12px;
        isolation: isolate;
      }

      .st6 {
        stroke-miterlimit: 10;
        stroke-width: 1px;
      }

      .st7 {
        fill: #e8fae6;
      }

      .st8, .st14 {
        fill: #a30000;
      }

      .st9, .st17 {
        fill: #4aa241;
      }

      .st21 {
        fill: #fff;
      }

      .st10 {
        stroke-width: 0px;
      }

      .st10, .st11 {
        fill: #393f44;
      }

      .st11 {
        stroke-width: 0px;
      }
    </style>
  </defs>
  <g>
    <path class="st18" d="M-81-58.9h1200"/>
    <path class="st18" d="M-81-58.9v800"/>
  </g>
  <g id="_E2EFA3B3-1CB4-4C7A-8E90-20B2116A188E">
    <path class="st18" d="M104,194.1"/>
    <g>
      <path id="_x5F_E2EFA3B3-1CB4-4C7A-8E90-20B2116A188E_x3F_shapeType_x3D_BACKGROUND" class="st7" d="M159.5,222.1c0,5-1.2,9.6-3.7,13.8-2.5,4.2-5.8,7.5-10,10s-8.8,3.7-13.8,3.7-9.6-1.2-13.8-3.7c-4.2-2.5-7.6-5.8-10-10-2.5-4.2-3.7-8.8-3.7-13.8s1.2-9.6,3.7-13.8c2.5-4.2,5.8-7.6,10-10,4.2-2.5,8.8-3.7,13.8-3.7s9.6,1.2,13.8,3.7c4.2,2.5,7.5,5.8,10,10,2.5,4.2,3.7,8.8,3.7,13.8Z"/>
      <path id="_x5F_E2EFA3B3-1CB4-4C7A-8E90-20B2116A188E_x3F_shapeType_x3D_BORDER_x26_renderType_x3D_FILL" class="st9" d="M132,194.1c-15.5,0-28,12.5-28,28s12.5,28,28,28,28-12.5,28-28-12.5-28-28-28ZM132,248.1c-14.4,0-26-11.6-26-26s11.6-26,26-26,26,11.6,26,26-11.6,26-26,26Z"/>
    </g>
  </g>
  <g id="_38ECC29F-E8FB-48EE-A37D-5BB401448ED1">
    <path class="st17" d="M240,171.1"/>
    <path id="_x5F_38ECC29F-E8FB-48EE-A37D-5BB401448ED1_x3F_shapeType_x3D_BACKGROUND" class="st21" d="M242,171.1h150c1.1,0,2,.9,2,2v98h0c0,1.1-.9,2-2,2h-150c-1.1,0-2-.9-2-2v-98h0c0-1.1.9-2,2-2Z"/>
    <path id="_x5F_38ECC29F-E8FB-48EE-A37D-5BB401448ED1_x3F_shapeType_x3D_BORDER_x26_renderType_x3D_STROKE" class="st4" d="M242,171.1h150c1.1,0,2,.9,2,2v98h0c0,1.1-.9,2-2,2h-150c-1.1,0-2-.9-2-2v-98h0c0-1.1.9-2,2-2Z"/>
    <path id="_38ECC29F-E8FB-48EE-A37D-5BB401448ED1_task__PSIX__wXTz" class="st11" d="M250.4,207.2c0-.3.2-.8.4-1.3.8-1.8,3.3-3.9,6.4-5.5.9-.5,1.7-.8,2.3-1,.2,0,.5-.2.5-.2.1-.2.3-.6.3-1.1v-.5s-.2-.2-.2-.2c-.7-.6-1.5-1.9-1.8-3.4-.1-.6-.2-.7-.3-.7,0,0-.3-.2-.5-.4-.7-.7-1.1-1.9-.8-2.6,0-.2.4-.4.6-.4.2,0,.2,0,0-1.2-.1-1.5,0-2.8.6-3.9.5-1.1,1.5-1.9,2.8-2.2,1.3-.4,2.9-.4,4.2,0,2.5.7,3.6,2.8,3.4,6.3,0,.5,0,1,0,1s0,0,.2,0c.7.1.9,1.1.3,2.2-.3.6-.7,1.1-1,1.1-.1,0-.2.1-.3.7-.2.8-.3,1.1-.7,1.9-.3.6-.9,1.4-1.2,1.6h-.2c0,.1,0,.5,0,.5,0,.5.2,1,.3,1.2,0,0,.2.2.6.3.7.2,1.4.5,2.5,1,2.9,1.5,5.4,3.6,6.2,5.3.2.5.4,1.1.4,1.4v.2h-25v-.2Z"/>
    <g>
      <path class="st10" d="M307.4,253.9"/>
      <path class="st10" d="M307.4,253.9"/>
    </g>
    <text class="st20" transform="translate(288.3 226.6)"><tspan x="0" y="0">Approval 1</tspan></text>
    <g id="_4460EB59-E4FB-419D-BDBD-23CAC7D64BD1">
      <path d="M289,245.1"/>
      <g>
        <path id="_x5F_4460EB59-E4FB-419D-BDBD-23CAC7D64BD1_x3F_shapeType_x3D_BACKGROUND" class="st5" d="M344.5,273.1c0,5-1.2,9.6-3.7,13.8-2.5,4.2-5.8,7.5-10,10s-8.8,3.7-13.8,3.7-9.6-1.2-13.8-3.7c-4.2-2.5-7.6-5.8-10-10-2.5-4.2-3.7-8.8-3.7-13.8s1.2-9.6,3.7-13.8c2.5-4.2,5.8-7.6,10-10,4.2-2.5,8.8-3.7,13.8-3.7s9.6,1.2,13.8,3.7c4.2,2.5,7.5,5.8,10,10,2.5,4.2,3.7,8.8,3.7,13.8Z"/>
        <path id="_x5F_4460EB59-E4FB-419D-BDBD-23CAC7D64BD1_x3F_shapeType_x3D_BORDER_x26_renderType_x3D_FILL" class="st19" d="M317,296.1c-12.7,0-23-10.3-23-23s10.3-23,23-23,23,10.3,23,23-10.3,23-23,23ZM317,252.1c-11.6,0-21,9.4-21,21s9.4,21,21,21,21-9.4,21-21-9.4-21-21-21ZM317,247.1c3.5,0,6.9.7,10.1,2,3.1,1.3,5.9,3.2,8.3,5.6,2.4,2.4,4.3,5.2,5.6,8.3,1.3,3.2,2,6.6,2,10.1s-.7,6.9-2,10.1c-1.3,3.1-3.2,5.9-5.6,8.3s-5.2,4.3-8.3,5.6c-3.2,1.3-6.6,2-10.1,2s-6.9-.7-10.1-2c-3.1-1.3-5.9-3.2-8.3-5.6-2.4-2.4-4.3-5.2-5.6-8.3-1.3-3.2-2-6.6-2-10.1s.7-6.9,2-10.1c1.3-3.1,3.2-5.9,5.6-8.3,2.4-2.4,5.2-4.3,8.3-5.6,3.2-1.3,6.6-2,10.1-2M317,245.1c-15.5,0-28,12.5-28,28s12.5,28,28,28,28-12.5,28-28-12.5-28-28-28h0Z"/>
        <path id="_4460EB59-E4FB-419D-BDBD-23CAC7D64BD1_wait" class="st12" d="M319,267.2v7c0,.1,0,.3-.1.4,0,0-.2.1-.4.1h-5c-.1,0-.3,0-.4-.1-.1,0-.1-.2-.1-.4v-1c0-.1,0-.3.1-.4s.2-.1.4-.1h3.5v-5.5c0-.1,0-.3.1-.4s.2-.1.4-.1h1c.1,0,.3,0,.4.1,0,0,.1.2.1.4ZM326.5,272.7c0-1.7-.4-3.3-1.3-4.8-.9-1.5-2-2.6-3.5-3.5-1.5-.8-3-1.3-4.8-1.3s-3.3.4-4.8,1.3c-1.4.9-2.6,2-3.4,3.5-.9,1.5-1.3,3-1.3,4.8s.4,3.3,1.3,4.8c.9,1.5,2,2.6,3.5,3.5,1.5.8,3,1.3,4.8,1.3s3.3-.4,4.8-1.3c1.5-.8,2.6-2,3.5-3.5.8-1.5,1.3-3,1.3-4.8ZM329,272.7c0,2.2-.5,4.2-1.6,6-1.1,1.8-2.5,3.3-4.4,4.4-1.8,1.1-3.8,1.6-6,1.6s-4.2-.5-6-1.6c-1.8-1.1-3.3-2.5-4.4-4.4-1.1-1.8-1.6-3.8-1.6-6s.5-4.2,1.6-6c1.1-1.8,2.5-3.3,4.4-4.4,1.8-1.1,3.8-1.6,6-1.6s4.2.5,6,1.6c1.8,1.1,3.3,2.5,4.4,4.4,1.1,1.8,1.6,3.9,1.6,6Z"/>
      </g>
    </g>
  </g>
  <g id="_BE303EB3-4CD8-46D0-B42F-EF4CAAC87504">
    <path class="st1" d="M474,171.1"/>
    <path id="_x5F_BE303EB3-4CD8-46D0-B42F-EF4CAAC87504_x3F_shapeType_x3D_BACKGROUND" class="st21" d="M476,171.1h150c1.1,0,2,.9,2,2v98h0c0,1.1-.9,2-2,2h-150c-1.1,0-2-.9-2-2v-98h0c0-1.1.9-2,2-2Z"/>
    <path id="_x5F_BE303EB3-4CD8-46D0-B42F-EF4CAAC87504_x3F_shapeType_x3D_BORDER_x26_renderType_x3D_STROKE" class="st4" d="M476,171.1h150c1.1,0,2,.9,2,2v98h0c0,1.1-.9,2-2,2h-150c-1.1,0-2-.9-2-2v-98h0c0-1.1.9-2,2-2Z"/>
    <path id="_BE303EB3-4CD8-46D0-B42F-EF4CAAC87504_task__PSIX__wXTz" class="st11" d="M484.4,207.2c0-.3.2-.8.4-1.3.8-1.8,3.3-3.9,6.4-5.5.9-.5,1.7-.8,2.3-1,.2,0,.5-.2.5-.2.1-.2.3-.6.3-1.1v-.5s-.2-.2-.2-.2c-.7-.6-1.5-1.9-1.8-3.4-.1-.6-.2-.7-.3-.7,0,0-.3-.2-.5-.4-.7-.7-1.1-1.9-.8-2.6,0-.2.4-.4.6-.4.2,0,.2,0,0-1.2-.1-1.5,0-2.8.6-3.9.5-1.1,1.5-1.9,2.8-2.2,1.3-.4,2.9-.4,4.2,0,2.5.7,3.6,2.8,3.4,6.3,0,.5,0,1,0,1s0,0,.2,0c.7.1.9,1.1.3,2.2-.3.6-.7,1.1-1,1.1-.1,0-.2.1-.3.7-.2.8-.3,1.1-.7,1.9-.3.6-.9,1.4-1.2,1.6h-.2c0,.1,0,.5,0,.5,0,.5.2,1,.3,1.2,0,0,.2.2.6.3.7.2,1.4.5,2.5,1,2.9,1.5,5.4,3.6,6.2,5.3.2.5.4,1.1.4,1.4v.2h-25v-.2Z"/>
    <g>
      <path class="st10" d="M541.4,253.9"/>
      <path class="st10" d="M541.4,253.9"/>
    </g>
    <text class="st20" transform="translate(525.7 226.6)"><tspan x="0" y="0">Aproval 2</tspan></text>
    <g id="_CACA35B6-A506-4280-AE8D-0123BE21EE76">
      <path d="M519,245.1"/>
      <g>
        <path id="_x5F_CACA35B6-A506-4280-AE8D-0123BE21EE76_x3F_shapeType_x3D_BACKGROUND" class="st5" d="M574.5,273.1c0,5-1.2,9.6-3.7,13.8-2.5,4.2-5.8,7.5-10,10s-8.8,3.7-13.8,3.7-9.6-1.2-13.8-3.7c-4.2-2.5-7.6-5.8-10-10-2.5-4.2-3.7-8.8-3.7-13.8s1.2-9.6,3.7-13.8c2.5-4.2,5.8-7.6,10-10,4.2-2.5,8.8-3.7,13.8-3.7s9.6,1.2,13.8,3.7c4.2,2.5,7.5,5.8,10,10,2.5,4.2,3.7,8.8,3.7,13.8Z"/>
        <path id="_x5F_CACA35B6-A506-4280-AE8D-0123BE21EE76_x3F_shapeType_x3D_BORDER_x26_renderType_x3D_FILL" class="st19" d="M547,296.1c-12.7,0-23-10.3-23-23s10.3-23,23-23,23,10.3,23,23-10.3,23-23,23ZM547,252.1c-11.6,0-21,9.4-21,21s9.4,21,21,21,21-9.4,21-21-9.4-21-21-21ZM547,247.1c3.5,0,6.9.7,10.1,2,3.1,1.3,5.9,3.2,8.3,5.6,2.4,2.4,4.3,5.2,5.6,8.3,1.3,3.2,2,6.6,2,10.1s-.7,6.9-2,10.1c-1.3,3.1-3.2,5.9-5.6,8.3s-5.2,4.3-8.3,5.6c-3.2,1.3-6.6,2-10.1,2s-6.9-.7-10.1-2c-3.1-1.3-5.9-3.2-8.3-5.6-2.4-2.4-4.3-5.2-5.6-8.3-1.3-3.2-2-6.6-2-10.1s.7-6.9,2-10.1c1.3-3.1,3.2-5.9,5.6-8.3,2.4-2.4,5.2-4.3,8.3-5.6,3.2-1.3,6.6-2,10.1-2M547,245.1c-15.5,0-28,12.5-28,28s12.5,28,28,28,28-12.5,28-28-12.5-28-28-28h0Z"/>
        <path id="_CACA35B6-A506-4280-AE8D-0123BE21EE76_wait" class="st12" d="M549,267.2v7c0,.1,0,.3-.1.4,0,0-.2.1-.4.1h-5c-.1,0-.3,0-.4-.1-.1,0-.1-.2-.1-.4v-1c0-.1,0-.3.1-.4s.2-.1.4-.1h3.5v-5.5c0-.1,0-.3.1-.4s.2-.1.4-.1h1c.1,0,.3,0,.4.1,0,0,.1.2.1.4ZM556.5,272.7c0-1.7-.4-3.3-1.3-4.8-.9-1.5-2-2.6-3.5-3.5-1.5-.8-3-1.3-4.8-1.3s-3.3.4-4.8,1.3c-1.4.9-2.6,2-3.4,3.5-.9,1.5-1.3,3-1.3,4.8s.4,3.3,1.3,4.8c.9,1.5,2,2.6,3.5,3.5,1.5.8,3,1.3,4.8,1.3s3.3-.4,4.8-1.3c1.5-.8,2.6-2,3.5-3.5.8-1.5,1.3-3,1.3-4.8ZM559,272.7c0,2.2-.5,4.2-1.6,6-1.1,1.8-2.5,3.3-4.4,4.4-1.8,1.1-3.8,1.6-6,1.6s-4.2-.5-6-1.6c-1.8-1.1-3.3-2.5-4.4-4.4-1.1-1.8-1.6-3.8-1.6-6s.5-4.2,1.6-6c1.1-1.8,2.5-3.3,4.4-4.4,1.8-1.1,3.8-1.6,6-1.6s4.2.5,6,1.6c1.8,1.1,3.3,2.5,4.4,4.4,1.1,1.8,1.6,3.9,1.6,6Z"/>
      </g>
    </g>
  </g>
  <g id="_9A605622-AC6F-4762-A4CE-649C562CA064">
    <path class="st1" d="M708,194.1"/>
    <g>
      <path id="_x5F_9A605622-AC6F-4762-A4CE-649C562CA064_x3F_shapeType_x3D_BACKGROUND" class="st0" d="M763.5,222.1c0,5-1.2,9.6-3.7,13.8-2.5,4.2-5.8,7.5-10,10s-8.8,3.7-13.8,3.7-9.6-1.2-13.8-3.7c-4.2-2.5-7.6-5.8-10-10-2.5-4.2-3.7-8.8-3.7-13.8s1.2-9.6,3.7-13.8c2.5-4.2,5.8-7.6,10-10,4.2-2.5,8.8-3.7,13.8-3.7s9.6,1.2,13.8,3.7c4.2,2.5,7.5,5.8,10,10,2.5,4.2,3.7,8.8,3.7,13.8Z"/>
      <path id="_x5F_9A605622-AC6F-4762-A4CE-649C562CA064_x3F_shapeType_x3D_BORDER_x26_renderType_x3D_FILL" class="st8" d="M736,194.1c-15.5,0-28,12.5-28,28s12.5,28,28,28,28-12.5,28-28-12.5-28-28-28ZM736,244.1c-12.1,0-22-9.8-22-22s9.9-22,22-22,22,9.9,22,22-9.8,22-22,22Z"/>
    </g>
  </g>
  <g id="_13B5F5ED-9351-4153-AA41-C2E81C127791">
    <path class="st14" d="M356,454.1"/>
    <path id="_x5F_13B5F5ED-9351-4153-AA41-C2E81C127791_x3F_shapeType_x3D_BACKGROUND" class="st21" d="M358,454.1h150c1.1,0,2,.9,2,2v98h0c0,1.1-.9,2-2,2h-150c-1.1,0-2-.9-2-2v-98h0c0-1.1.9-2,2-2Z"/>
    <path id="_x5F_13B5F5ED-9351-4153-AA41-C2E81C127791_x3F_shapeType_x3D_BORDER_x26_renderType_x3D_STROKE" class="st4" d="M358,454.1h150c1.1,0,2,.9,2,2v98h0c0,1.1-.9,2-2,2h-150c-1.1,0-2-.9-2-2v-98h0c0-1.1.9-2,2-2Z"/>
    <g>
      <path id="_13B5F5ED-9351-4153-AA41-C2E81C127791_task__DLkt__BCEd" class="st11" d="M377.2,471.3c-.2-.2-.5-.2-.6,0l-3.4,3.4c-.2.2-.2.5,0,.6l3.4,3.4c0,0,.2.1.3.1s.2,0,.3-.1c.2-.2.2-.5,0-.6l-3.1-3.1,3.1-3.1c.2-.2.2-.5,0-.6Z"/>
      <path id="_13B5F5ED-9351-4153-AA41-C2E81C127791_task__DLkt__j6Fy" class="st11" d="M381.1,471.3c-.2-.2-.5-.2-.6,0-.2.2-.2.5,0,.6l3.1,3.1-3.1,3.1c-.2.2-.2.5,0,.6,0,.1.2.1.3.1s.2,0,.3-.1l3.4-3.4c.2-.2.2-.5,0-.6l-3.4-3.4Z"/>
      <path id="_13B5F5ED-9351-4153-AA41-C2E81C127791_task__DLkt__ilY5" class="st11" d="M389.4,465.4h-16.3c-4,0-3.8,3.8-3.8,3.8v11.5h-3.8s-.3,7.7,4.6,7.7h14.5c2.9,0,3.8-2.9,3.8-4.8v-10.6h3.8v-3.8s0-3.8-2.9-3.8ZM370.1,486.5c-.6,0-1-.2-1.3-.5-.7-.7-1.1-2.1-1.2-3.3h13.3c0,.2,0,.3,0,.5.1,1.4.4,2.5.9,3.3h-11.6ZM386.5,483.6c0,.6-.1,1.5-.5,2.1-.3.5-.7.8-1.4.8-2.1,0-1.9-5.8-1.9-5.8h-11.5v-11.5h0c0-.3,0-1.1.5-1.5.1-.1.4-.4,1.4-.4h13.7c-.1.5-.2,1.1-.3,1.6,0,0,0,0,0,.1h0c0,.2,0,.3,0,.3v14.4Z"/>
    </g>
    <text class="st20" transform="translate(408.3 509.6)"><tspan x="0" y="0">Escalate!</tspan></text>
  </g>
  <g id="_1D9886E5-531F-4AA9-B627-F9440736F9DE">
    <path d="M405,356.1"/>
    <g>
      <path id="_x5F_1D9886E5-531F-4AA9-B627-F9440736F9DE_x3F_shapeType_x3D_BACKGROUND" class="st2" d="M433,356.6c-1,0-2,.4-2.8,1.1l-23.6,23.6c-1.5,1.5-1.5,4,0,5.5l23.6,23.6c.8.8,1.8,1.1,2.8,1.1s2-.4,2.8-1.1l23.6-23.6c1.5-1.5,1.5-4,0-5.5l-23.6-23.6c-.8-.8-1.8-1.1-2.8-1.1h0Z"/>
      <path id="_x5F_1D9886E5-531F-4AA9-B627-F9440736F9DE_x3F_shapeType_x3D_BORDER_x26_renderType_x3D_FILL" class="st16" d="M407.6,382.7l24.1-24.1c.8-.8,2-.8,2.8,0l24.1,24.1c.8.8.8,2.1,0,2.8l-24.1,24.1c-.8.8-2,.8-2.8,0l-24.1-24.1c-.8-.8-.8-2.1,0-2.8h0ZM405,384.1c0,1,.4,2,1.2,2.8l24,24c1.5,1.5,4.1,1.5,5.6,0l24-24c.8-.8,1.2-1.8,1.2-2.8s-.4-2-1.2-2.8l-24-24c-1.5-1.6-4.1-1.6-5.6,0l-24,24c-.8.8-1.2,1.8-1.2,2.8h0Z"/>
      <path id="_1D9886E5-531F-4AA9-B627-F9440736F9DE_inclusive" class="st16" d="M433,372.1c3.2,0,6.2,1.2,8.5,3.5,2.3,2.3,3.5,5.3,3.5,8.5s-1.2,6.2-3.5,8.5c-2.3,2.3-5.3,3.5-8.5,3.5s-6.2-1.2-8.5-3.5c-2.3-2.3-3.5-5.3-3.5-8.5s1.2-6.2,3.5-8.5c2.3-2.3,5.3-3.5,8.5-3.5M433,370.1c-7.7,0-14,6.3-14,14s6.3,14,14,14,14-6.3,14-14-6.3-14-14-14h0Z"/>
    </g>
  </g>
  <g id="_38661628-DB31-43E3-8B8D-2D0A22F6E8DA">
    <path class="st3" d="M586,477.1"/>
    <g>
      <path id="_x5F_38661628-DB31-43E3-8B8D-2D0A22F6E8DA_x3F_shapeType_x3D_BACKGROUND" class="st0" d="M641.5,505.1c0,5-1.2,9.6-3.7,13.8-2.5,4.2-5.8,7.5-10,10s-8.8,3.7-13.8,3.7-9.6-1.2-13.8-3.7c-4.2-2.5-7.6-5.8-10-10-2.5-4.2-3.7-8.8-3.7-13.8s1.2-9.6,3.7-13.8c2.5-4.2,5.8-7.6,10-10,4.2-2.5,8.8-3.7,13.8-3.7s9.6,1.2,13.8,3.7c4.2,2.5,7.5,5.8,10,10,2.5,4.2,3.7,8.8,3.7,13.8Z"/>
      <path id="_x5F_38661628-DB31-43E3-8B8D-2D0A22F6E8DA_x3F_shapeType_x3D_BORDER_x26_renderType_x3D_FILL" class="st8" d="M614,477.1c-15.5,0-28,12.5-28,28s12.5,28,28,28,28-12.5,28-28-12.5-28-28-28ZM614,527.1c-12.1,0-22-9.8-22-22s9.9-22,22-22,22,9.9,22,22-9.8,22-22,22Z"/>
    </g>
  </g>
  <g id="_17F0C0C3-E57C-48B4-8A10-0DDA0E2A32D4">
    <path class="st13" d="M317,301.1v81l73,1.7"/>
    <path class="st6" d="M389.9,388.7l.2-10,14.9,5.3-15.1,4.7Z"/>
  </g>
  <g id="_327409D9-90C5-4ABA-A378-C97D50E2A03D">
    <path class="st13" d="M433,412.1v27"/>
    <path class="st15" d="M428,439.1h10l-5,15-5-15Z"/>
  </g>
  <g id="_3D2ED776-4846-4A98-BF63-CD6D3AEE63BB">
    <path class="st13" d="M510,505.1h61"/>
    <path class="st15" d="M571,510.1v-10l15,5-15,5Z"/>
  </g>
  <g id="_87D1238B-616B-4437-8F1D-94E6BD4B69BA">
    <path class="st13" d="M547.2,301.1l.4,83h-71.6"/>
    <path class="st15" d="M476,379.1v10l-15-5,15-5Z"/>
  </g>
  <g id="_4281FE39-A6DD-45A4-AED9-590615B0D392">
    <path class="st13" d="M160,222.1h65"/>
    <path class="st15" d="M225,227.1v-10l15,5-15,5Z"/>
  </g>
  <g id="_6AF6C84D-715A-4ED3-A2B2-C5ED9E4532D3">
    <path class="st13" d="M394,222.1h65"/>
    <path class="st15" d="M459,227.1v-10l15,5-15,5Z"/>
  </g>
  <g id="_5BB9D40B-0EA5-4A74-8C89-03041041AB4D">
    <path class="st13" d="M628,222.1h65"/>
    <path class="st15" d="M693,227.1v-10l15,5-15,5Z"/>
  </g>
</svg>